<?xml version="1.0" encoding="UTF-8"?>
<svg width="530px" height="150px" viewBox="0 0 530 150" version="1.1" xmlns="http://www.w3.org/2000/svg" xmlns:xlink="http://www.w3.org/1999/xlink">
    <!-- Generator: Sketch 44.1 (41455) - http://www.bohemiancoding.com/sketch -->
    <title>foodfetti-top</title>
    <desc>Created with Sketch.</desc>
    <defs>
        <polygon id="path-1" points="-15 386.99999 560.999986 386.99999 560.999986 3 -15 3"></polygon>
    </defs>
    <g id="backgrounds" stroke="none" stroke-width="1" fill="none" fill-rule="evenodd">
        <g id="foodfetti-top">
            <mask id="mask-2" fill="white">
                <use xlink:href="#path-1"></use>
            </mask>
            <g id="path18" transform="translate(272.999993, 194.999995) scale(-1, 1) rotate(-180.000000) translate(-272.999993, -194.999995) "></g>
            <g id="g22" mask="url(#mask-2)" fill-rule="nonzero" fill="#006C45">
                <g transform="translate(261.484393, 32.488266) scale(-1, 1) rotate(-180.000000) translate(-261.484393, -32.488266) translate(242.817727, 11.154933)" id="path24">
                    <path d="M13.333333,3.9999999 C14.8239996,5.72133319 15.9319996,7.79066647 17.6759996,9.25466644 C19.9839995,11.1919997 23.0786661,11.817333 25.8973327,12.8866663 C28.7159993,13.953333 31.6146659,15.8813329 32.1413325,18.8479995 C32.4919992,20.8266661 31.6986659,22.8653328 32.0066659,24.850666 C32.3213325,26.8853327 33.7266658,28.5479993 34.9786658,30.1813326 C36.2319991,31.8133325 37.4373324,33.7173325 37.2373324,35.7653324 C37.0053324,38.1466657 34.9226658,39.9493323 32.7359992,40.9186656 C29.6773326,42.2719989 26.098666,42.4746656 22.9493328,41.3453323 C19.8013328,40.215999 17.1346662,37.7373324 15.9013329,34.6293325 C14.909333,32.1266659 14.8199996,29.2853326 13.4759997,26.954666 C12.3546664,25.0093327 10.4773331,23.6293327 8.58799979,22.4173328 C6.69999983,21.2026661 4.71599988,20.0706662 3.19199992,18.4199995 C1.66933329,16.7706662 0.65866665,14.4559996 1.19066664,12.2746664 C1.48399996,11.0719997 2.21199994,10.0226664 2.6386666,8.85999978 C3.24399992,7.20799982 3.22266659,5.37999987 3.8199999,3.72533324 C5.51066653,-0.965333309 10.9173331,1.20666664 13.333333,3.9999999"></path>
                </g>
            </g>
            <g id="g26" mask="url(#mask-2)" fill-rule="nonzero" fill="#7EBD4F">
                <g transform="translate(257.818393, 44.335999) scale(-1, 1) rotate(-180.000000) translate(-257.818393, -44.335999) translate(246.485060, 21.669333)" id="path28">
                    <path d="M2.6666666,1.3333333 L0.53733332,1.3133333 C0.461333322,9.3973331 2.31066661,17.6573329 5.88533319,25.198666 C9.4573331,32.7413325 14.677333,39.403999 20.9813328,44.4653322 L22.3146661,42.8053323 C16.2613329,37.9439991 11.2453331,31.5399992 7.80933314,24.2879994 C4.37333322,17.0346662 2.5946666,9.09733311 2.6666666,1.3333333"></path>
                </g>
            </g>
            <g id="g90" mask="url(#mask-2)" fill-rule="nonzero" fill="#7EBD4F">
                <g transform="translate(128.954397, 100.613864) scale(-1, 1) rotate(-180.000000) translate(-128.954397, -100.613864) translate(112.954397, 75.947198)" id="path92">
                    <path d="M1.3333333,39.999999 C1.83599995,37.9719991 2.7906666,36.0879991 3.51733325,34.1266658 C5.35066653,29.1706659 5.69599986,23.8106661 6.61733317,18.6066662 C7.53999981,13.4026663 9.20266644,8.05066647 13.0239997,4.39733322 C16.8439996,0.745333315 23.3346661,-0.53733332 27.442666,2.78799993 C30.5879992,5.3373332 31.5426659,9.89066642 30.7439992,13.861333 C29.9453326,17.8306662 27.682666,21.3386661 25.2999994,24.6119994 C22.9159994,27.886666 20.3386662,31.0839992 18.7533329,34.8106658 C17.5253329,37.6959991 15.277333,39.7826657 13.8026663,42.5506656 C12.1586664,45.6386655 10.3799997,49.5413321 6.6946665,48.8053321 C2.19599995,47.9093321 0.27466666,44.2613322 1.3333333,39.999999"></path>
                </g>
            </g>
            <g id="g94" mask="url(#mask-2)" fill-rule="nonzero" fill="#2C1F22">
                <g transform="translate(120.387330, 76.270131) scale(-1, 1) rotate(-180.000000) translate(-120.387330, -76.270131) translate(117.053997, 71.603465)" id="path96">
                    <polygon points="6.6666665 2.6666666 3.13999992 1.29866663 0.401333323 7.34666648 3.92666657 8.71466645"></polygon>
                </g>
            </g>
            <g id="g98" mask="url(#mask-2)" fill-rule="nonzero" fill="#F15D28">
                <g transform="translate(131.281864, 98.320264) scale(-1, 1) rotate(-180.000000) translate(-131.281864, -98.320264) translate(117.281864, 76.986931)" id="path100">
                    <path d="M1.3333333,34.6666658 C1.77466662,32.8879992 2.61199993,31.2346659 3.24933325,29.5159993 C4.85733321,25.1679994 5.15999987,20.4666662 5.96933318,15.9013329 C6.77733316,11.337333 8.23599979,6.6426665 11.5866664,3.43866658 C14.9386663,0.234666661 20.6319995,-0.890666644 24.2346661,2.02799995 C26.994666,4.26266656 27.830666,8.25733313 27.130666,11.7386664 C26.430666,15.221333 24.4453327,18.2973329 22.3559994,21.1693328 C20.2653328,24.0413327 18.0039995,26.846666 16.6119996,30.1146659 C15.5359996,32.6453325 15.0039996,35.4026658 13.7106663,37.8319991 C12.269333,40.539999 9.18399977,43.1386656 5.95199985,42.4946656 C2.00666662,41.707999 0.405333323,38.403999 1.3333333,34.6666658"></path>
                </g>
            </g>
            <g id="g102" mask="url(#mask-2)" fill-rule="nonzero" fill="#1F2114">
                <g transform="translate(131.816397, 101.882797) scale(-1, 1) rotate(-180.000000) translate(-131.816397, -101.882797) translate(129.816397, 99.882797)" id="path104">
                    <path d="M2.6666666,2.6666666 C2.84933326,2.02266662 2.47333327,1.3533333 1.82933329,1.17066664 C1.1853333,0.987999975 0.515999987,1.36266663 0.333333325,2.00799995 C0.151999996,2.65199993 0.526666653,3.32133325 1.17066664,3.50399991 C1.81466662,3.68533324 2.48399994,3.31066658 2.6666666,2.6666666"></path>
                </g>
            </g>
            <g id="g106" mask="url(#mask-2)" fill-rule="nonzero" fill="#1F2114">
                <g transform="translate(133.272797, 98.297464) scale(-1, 1) rotate(-180.000000) translate(-133.272797, -98.297464) translate(131.272797, 96.297464)" id="path108">
                    <path d="M2.6666666,2.6666666 C2.84799993,2.02266662 2.47333327,1.3533333 1.82933329,1.17066664 C1.1853333,0.989333309 0.514666654,1.36399997 0.333333325,2.00799995 C0.150666663,2.65199993 0.526666653,3.32266658 1.17066664,3.50399991 C1.81466662,3.68666657 2.48399994,3.31066658 2.6666666,2.6666666"></path>
                </g>
            </g>
            <g id="g110" mask="url(#mask-2)" fill-rule="nonzero" fill="#1F2114">
                <g transform="translate(129.876264, 98.047464) scale(-1, 1) rotate(-180.000000) translate(-129.876264, -98.047464) translate(127.876264, 96.047464)" id="path112">
                    <path d="M2.6666666,2.6666666 C2.84933326,2.02266662 2.47333327,1.3533333 1.82933329,1.17066664 C1.1853333,0.989333309 0.515999987,1.36399997 0.333333325,2.00799995 C0.151999996,2.65199993 0.526666653,3.32266658 1.17066664,3.50399991 C1.81466662,3.68666657 2.48533327,3.31066658 2.6666666,2.6666666"></path>
                </g>
            </g>
            <g id="g114" mask="url(#mask-2)" fill-rule="nonzero" fill="#1F2114">
                <g transform="translate(131.071597, 94.787064) scale(-1, 1) rotate(-180.000000) translate(-131.071597, -94.787064) translate(129.071597, 92.787064)" id="path116">
                    <path d="M2.6666666,2.6666666 C2.84933326,2.02266662 2.47333327,1.35199997 1.82933329,1.17066664 C1.1853333,0.987999975 0.515999987,1.36266663 0.333333325,2.00799995 C0.151999996,2.65199993 0.526666653,3.32133325 1.17066664,3.50399991 C1.81466662,3.68533324 2.48533327,3.31066658 2.6666666,2.6666666"></path>
                </g>
            </g>
            <g id="g118" mask="url(#mask-2)" fill-rule="nonzero" fill="#1F2114">
                <g transform="translate(127.546264, 93.364531) scale(-1, 1) rotate(-180.000000) translate(-127.546264, -93.364531) translate(125.546264, 91.364531)" id="path120">
                    <path d="M2.6666666,2.6666666 C2.84799993,2.02266662 2.47333327,1.35199997 1.82933329,1.17066664 C1.1853333,0.987999975 0.514666654,1.36266663 0.333333325,2.00799995 C0.150666663,2.65199993 0.526666653,3.32133325 1.17066664,3.50399991 C1.81466662,3.68533324 2.48399994,3.31066658 2.6666666,2.6666666"></path>
                </g>
            </g>
            <g id="g122" mask="url(#mask-2)" fill-rule="nonzero" fill="#1F2114">
                <g transform="translate(135.714797, 101.235064) scale(-1, 1) rotate(-180.000000) translate(-135.714797, -101.235064) translate(133.714797, 99.235064)" id="path124">
                    <path d="M2.6666666,2.6666666 C2.84799993,2.02266662 2.47333327,1.35199997 1.82933329,1.17066664 C1.1853333,0.987999975 0.515999987,1.36266663 0.333333325,2.00799995 C0.150666663,2.65199993 0.526666653,3.32133325 1.17066664,3.50399991 C1.81466662,3.68533324 2.48399994,3.31066658 2.6666666,2.6666666"></path>
                </g>
            </g>
            <g id="g126" mask="url(#mask-2)" fill-rule="nonzero" fill="#1F2114">
                <g transform="translate(133.732397, 104.919331) scale(-1, 1) rotate(-180.000000) translate(-133.732397, -104.919331) translate(131.732397, 102.919331)" id="path128">
                    <path d="M2.6666666,2.6666666 C2.84799993,2.02266662 2.47333327,1.3533333 1.82933329,1.17066664 C1.1853333,0.989333309 0.514666654,1.36399997 0.333333325,2.00799995 C0.150666663,2.65199993 0.526666653,3.32266658 1.17066664,3.50399991 C1.81466662,3.68666657 2.48399994,3.31066658 2.6666666,2.6666666"></path>
                </g>
            </g>
            <g id="g130" mask="url(#mask-2)" fill-rule="nonzero" fill="#1F2114">
                <g transform="translate(137.355463, 104.902931) scale(-1, 1) rotate(-180.000000) translate(-137.355463, -104.902931) translate(135.355463, 102.902931)" id="path132">
                    <path d="M2.6666666,2.6666666 C2.84933326,2.02266662 2.47333327,1.35199997 1.82933329,1.17066664 C1.1853333,0.987999975 0.515999987,1.36266663 0.333333325,2.00666662 C0.151999996,2.65199993 0.526666653,3.32133325 1.17066664,3.50266658 C1.81466662,3.68533324 2.48399994,3.31066658 2.6666666,2.6666666"></path>
                </g>
            </g>
            <g id="g134" mask="url(#mask-2)" fill-rule="nonzero" fill="#1F2114">
                <g transform="translate(135.652930, 108.507864) scale(-1, 1) rotate(-180.000000) translate(-135.652930, -108.507864) translate(133.652930, 106.507864)" id="path136">
                    <path d="M2.6666666,2.6666666 C2.84799993,2.02266662 2.47333327,1.35199997 1.82933329,1.17066664 C1.1853333,0.987999975 0.515999987,1.36266663 0.333333325,2.00666662 C0.150666663,2.65199993 0.526666653,3.32133325 1.17066664,3.50266658 C1.81466662,3.68533324 2.48399994,3.31066658 2.6666666,2.6666666"></path>
                </g>
            </g>
            <g id="g138" mask="url(#mask-2)" fill-rule="nonzero" fill="#1F2114">
                <g transform="translate(131.433597, 107.483064) scale(-1, 1) rotate(-180.000000) translate(-131.433597, -107.483064) translate(129.433597, 105.483064)" id="path140">
                    <path d="M2.6666666,2.6666666 C2.84799993,2.02266662 2.47333327,1.3533333 1.82933329,1.17066664 C1.1853333,0.987999975 0.514666654,1.36266663 0.333333325,2.00799995 C0.150666663,2.65199993 0.526666653,3.32133325 1.17066664,3.50399991 C1.81466662,3.68533324 2.48399994,3.31066658 2.6666666,2.6666666"></path>
                </g>
            </g>
            <g id="g142" mask="url(#mask-2)" fill-rule="nonzero" fill="#1F2114">
                <g transform="translate(139.611330, 107.893864) scale(-1, 1) rotate(-180.000000) translate(-139.611330, -107.893864) translate(137.611330, 105.893864)" id="path144">
                    <path d="M2.6666666,2.6666666 C2.84799993,2.02266662 2.47333327,1.3533333 1.82933329,1.17066664 C1.1853333,0.987999975 0.514666654,1.36266663 0.333333325,2.00799995 C0.150666663,2.65199993 0.526666653,3.32133325 1.17066664,3.50399991 C1.81466662,3.68533324 2.48399994,3.31066658 2.6666666,2.6666666"></path>
                </g>
            </g>
            <g id="g146" mask="url(#mask-2)" fill-rule="nonzero" fill="#1F2114">
                <g transform="translate(128.322264, 101.106131) scale(-1, 1) rotate(-180.000000) translate(-128.322264, -101.106131) translate(126.322264, 99.106131)" id="path148">
                    <path d="M2.6666666,2.6666666 C2.84799993,2.02266662 2.47333327,1.35199997 1.82933329,1.17066664 C1.1853333,0.987999975 0.514666654,1.36266663 0.333333325,2.00666662 C0.150666663,2.65199993 0.526666653,3.32133325 1.17066664,3.50266658 C1.81466662,3.68533324 2.48399994,3.31066658 2.6666666,2.6666666"></path>
                </g>
            </g>
            <g id="g218" mask="url(#mask-2)" fill-rule="nonzero" fill="#006C45">
                <g transform="translate(39.544265, 39.085332) scale(-1, 1) rotate(-180.000000) translate(-39.544265, -39.085332) translate(18.877599, 19.085333)" id="path220">
                    <path d="M39.999999,22.6666661 C41.5946656,11.9106664 34.1679991,1.89733329 23.4119994,0.302666659 C12.6559997,-1.2933333 2.6426666,6.13333318 1.04799997,16.8893329 C-0.546666653,27.646666 6.87999983,37.6586657 17.6359996,39.2533324 C28.3919993,40.8493323 38.403999,33.4226658 39.999999,22.6666661"></path>
                </g>
            </g>
            <g id="g222" mask="url(#mask-2)" fill-rule="nonzero" fill="#7EBD4F">
                <g transform="translate(39.609999, 39.648399) scale(-1, 1) rotate(-180.000000) translate(-39.609999, -39.648399) translate(23.609999, 23.648399)" id="path224">
                    <path d="M21.3333328,15.9999996 C23.4853327,17.7853329 25.710666,16.2879996 25.710666,16.2879996 C22.5586661,14.469333 21.3333328,15.9999996 21.3333328,15.9999996 M21.0093328,13.949333 C23.7119994,14.6386663 25.1293327,12.5079997 25.1293327,12.5079997 C21.4999995,12.1759997 21.0093328,13.949333 21.0093328,13.949333 M22.9986661,9.3093331 C20.2266662,9.63199976 19.9039995,12.3519997 19.9039995,12.3519997 C23.3586661,11.3106664 22.9986661,9.3093331 22.9986661,9.3093331 M19.1946662,7.27866648 C16.6399996,9.88133309 17.7039996,11.3826664 17.7039996,11.3826664 C19.9466662,9.72533309 19.1946662,7.27866648 19.1946662,7.27866648 M10.8333331,15.6066663 C10.4266664,18.3453329 12.317333,20.8933328 15.0559996,21.2999995 C17.7946662,21.7066661 20.3439995,19.8159995 20.7506661,17.0773329 C21.1573328,14.337333 19.2653329,11.7879997 16.5266663,11.3826664 C13.7879997,10.9759997 11.2386664,12.8666663 10.8333331,15.6066663 M15.4866663,6.30133318 C13.8466663,8.55999979 15.6293329,10.6386664 15.6293329,10.6386664 C17.2026662,7.39066648 15.4866663,6.30133318 15.4866663,6.30133318 M10.2533331,7.58533314 C10.0399997,10.4466664 12.6546664,11.2506664 12.6546664,11.2506664 C12.2919997,7.57333314 10.2533331,7.58533314 10.2533331,7.58533314 M7.47199981,10.3279997 C8.35733312,13.0559997 11.0813331,12.8119997 11.0813331,12.8119997 C9.35466643,9.54399976 7.47199981,10.3279997 7.47199981,10.3279997 M5.55866653,14.717333 C7.71066647,16.5013329 9.93733308,15.005333 9.93733308,15.005333 C6.78399983,13.185333 5.55866653,14.717333 5.55866653,14.717333 M10.1826664,17.4973329 C6.55199984,17.1653329 6.06266652,18.9386662 6.06266652,18.9386662 C8.76533311,19.6266662 10.1826664,17.4973329 10.1826664,17.4973329 M11.665333,20.0973328 C8.89333311,20.4199995 8.57066645,23.1399994 8.57066645,23.1399994 C12.025333,22.0986661 11.665333,20.0973328 11.665333,20.0973328 M12.1079997,26.1119993 C14.3506663,24.4546661 13.5986663,22.0093328 13.5986663,22.0093328 C11.0453331,24.6106661 12.1079997,26.1119993 12.1079997,26.1119993 M15.8933329,26.2813327 C17.4666662,23.0346661 15.7506663,21.9453328 15.7506663,21.9453328 C14.1106663,24.2039994 15.8933329,26.2813327 15.8933329,26.2813327 M20.8786661,24.6999994 C20.5973328,21.0146661 18.5586662,20.9826661 18.5586662,20.9826661 C18.2826662,23.8386661 20.8786661,24.6999994 20.8786661,24.6999994 M24.1133327,21.8333328 C22.3146661,18.6053329 20.4493328,19.4306662 20.4493328,19.4306662 C21.3959995,22.1386661 24.1133327,21.8333328 24.1133327,21.8333328 M13.5439997,31.4973325 C5.17466654,30.2546659 -0.602666652,22.4639994 0.638666651,14.093333 C1.87999995,5.72266652 9.67066642,-0.0559999986 18.0386662,1.1853333 C26.4079993,2.42799994 32.1853325,10.2199997 30.9439992,18.5893329 C29.7026659,26.9599993 21.9133328,32.7386658 13.5439997,31.4973325"></path>
                </g>
            </g>
            <g id="g226" mask="url(#mask-2)" fill-rule="nonzero" fill="#F4F1A3">
                <g transform="translate(39.693332, 39.238266) scale(-1, 1) rotate(-180.000000) translate(-39.693332, -39.238266) translate(33.693332, 33.238266)" id="path228">
                    <path d="M10.6666664,6.6666665 C10.2613331,9.4053331 7.71199981,11.2959997 4.97199988,10.8893331 C2.23333328,10.4839997 0.342666658,7.93466647 0.749333315,5.19599987 C1.15599997,2.45733327 3.70533324,0.565333319 6.44399984,0.971999976 C9.18266644,1.37866663 11.0733331,3.9279999 10.6666664,6.6666665"></path>
                </g>
            </g>
            <g id="g230" mask="url(#mask-2)" fill-rule="nonzero" fill="#1F2114">
                <g transform="translate(33.941465, 33.550799) scale(-1, 1) rotate(-180.000000) translate(-33.941465, -33.550799) translate(31.274799, 31.550799)" id="path232">
                    <path d="M3.9999999,0 C3.9999999,0 4.36133322,2.00133328 0.906666644,3.04266659 C0.906666644,3.04266659 1.22799997,0.322666659 3.9999999,0"></path>
                </g>
            </g>
            <g id="g234" mask="url(#mask-2)" fill-rule="nonzero" fill="#1F2114">
                <g transform="translate(45.514265, 45.296932) scale(-1, 1) rotate(-180.000000) translate(-45.514265, -45.296932) translate(43.514265, 43.296932)" id="path236">
                    <path d="M0,3.9999999 C0,3.9999999 0.322666659,1.27999997 3.09333326,0.958666643 C3.09333326,0.958666643 3.45466658,2.95999993 0,3.9999999"></path>
                </g>
            </g>
            <g id="g238" mask="url(#mask-2)" fill-rule="nonzero" fill="#1F2114">
                <g transform="translate(39.503199, 32.033199) scale(-1, 1) rotate(-180.000000) translate(-39.503199, -32.033199) translate(38.169865, 29.366533)" id="path240">
                    <path d="M1.3333333,5.3333332 C1.3333333,5.3333332 -0.449333322,3.25466659 1.19066664,0.997333308 C1.19066664,0.997333308 2.90666659,2.08666661 1.3333333,5.3333332"></path>
                </g>
            </g>
            <g id="g242" mask="url(#mask-2)" fill-rule="nonzero" fill="#1F2114">
                <g transform="translate(39.096399, 46.680399) scale(-1, 1) rotate(-180.000000) translate(-39.096399, -46.680399) translate(37.763065, 44.013732)" id="path244">
                    <path d="M1.3333333,0 C1.3333333,0 3.05066659,1.08933331 1.47599996,4.33733322 C1.47599996,4.33733322 -0.306666659,2.25866661 1.3333333,0"></path>
                </g>
            </g>
            <g id="g246" mask="url(#mask-2)" fill-rule="nonzero" fill="#1F2114">
                <g transform="translate(43.154932, 32.947866) scale(-1, 1) rotate(-180.000000) translate(-43.154932, -32.947866) translate(41.821599, 30.947866)" id="path248">
                    <path d="M2.6666666,3.9999999 C2.6666666,3.9999999 0.0706666649,3.13866659 0.347999991,0.281333326 C0.347999991,0.281333326 2.38666661,0.314666659 2.6666666,3.9999999"></path>
                </g>
            </g>
            <g id="g250" mask="url(#mask-2)" fill-rule="nonzero" fill="#1F2114">
                <g transform="translate(34.530532, 46.062532) scale(-1, 1) rotate(-180.000000) translate(-34.530532, -46.062532) translate(32.530532, 44.062532)" id="path252">
                    <path d="M1.3333333,0 C1.3333333,0 3.37199992,-0.013333333 3.73466657,3.66533324 C3.73466657,3.66533324 1.11999997,2.86133326 1.3333333,0"></path>
                </g>
            </g>
            <g id="g254" mask="url(#mask-2)" fill-rule="nonzero" fill="#1F2114">
                <g transform="translate(46.059865, 35.550799) scale(-1, 1) rotate(-180.000000) translate(-46.059865, -35.550799) translate(44.059865, 33.550799)" id="path256">
                    <path d="M0,1.3333333 C0,1.3333333 1.86399995,0.507999987 3.66399991,3.73599991 C3.66399991,3.73599991 0.94533331,4.04133323 0,1.3333333"></path>
                </g>
            </g>
            <g id="g258" mask="url(#mask-2)" fill-rule="nonzero" fill="#1F2114">
                <g transform="translate(32.690799, 43.503199) scale(-1, 1) rotate(-180.000000) translate(-32.690799, -43.503199) translate(30.690799, 41.503199)" id="path260">
                    <path d="M3.9999999,2.6666666 C3.9999999,2.6666666 1.27599997,2.91199993 0.390666657,0.182666662 C0.390666657,0.182666662 2.27333328,-0.601333318 3.9999999,2.6666666"></path>
                </g>
            </g>
            <g id="g262" mask="url(#mask-2)" fill-rule="nonzero" fill="#1F2114">
                <g transform="translate(47.609998, 39.648399) scale(-1, 1) rotate(-180.000000) translate(-47.609998, -39.648399) translate(44.943332, 38.315066)" id="path264">
                    <path d="M0,1.3333333 C0,1.3333333 1.2253333,-0.197333328 4.37733322,1.62133329 C4.37733322,1.62133329 2.15199995,3.11866659 0,1.3333333"></path>
                </g>
            </g>
            <g id="g266" mask="url(#mask-2)" fill-rule="nonzero" fill="#1F2114">
                <g transform="translate(30.880266, 40.643199) scale(-1, 1) rotate(-180.000000) translate(-30.880266, -40.643199) translate(28.213599, 39.309866)" id="path268">
                    <path d="M5.3333332,1.3333333 C5.3333332,1.3333333 3.10799992,2.8306666 0.955999976,1.04533331 C0.955999976,1.04533331 2.18133328,-0.486666655 5.3333332,1.3333333"></path>
                </g>
            </g>
            <g id="g270" mask="url(#mask-2)" fill-rule="nonzero" fill="#1F2114">
                <g transform="translate(47.285865, 42.365199) scale(-1, 1) rotate(-180.000000) translate(-47.285865, -42.365199) translate(44.619199, 40.365199)" id="path272">
                    <path d="M0,2.6666666 C0,2.6666666 0.490666654,0.893333311 4.1199999,1.22399997 C4.1199999,1.22399997 2.7026666,3.35466658 0,2.6666666"></path>
                </g>
            </g>
            <g id="g274" mask="url(#mask-2)" fill-rule="nonzero" fill="#1F2114">
                <g transform="translate(31.126266, 37.485066) scale(-1, 1) rotate(-180.000000) translate(-31.126266, -37.485066) translate(28.459599, 35.485066)" id="path276">
                    <path d="M5.3333332,1.3333333 C5.3333332,1.3333333 3.9159999,3.46399991 1.2133333,2.77599993 C1.2133333,2.77599993 1.70266662,1.00133331 5.3333332,1.3333333"></path>
                </g>
            </g>
            <g id="g278" mask="url(#mask-2)" fill-rule="nonzero" fill="#1F2114">
                <g transform="translate(42.138665, 45.702532) scale(-1, 1) rotate(-180.000000) translate(-42.138665, -45.702532) translate(40.138665, 43.035866)" id="path280">
                    <path d="M2.6666666,0 C2.6666666,0 3.41733325,2.44533327 1.17466664,4.10266656 C1.17466664,4.10266656 0.111999997,2.60133327 2.6666666,0"></path>
                </g>
            </g>
            <g id="g282" mask="url(#mask-2)" fill-rule="nonzero" fill="#1F2114">
                <g transform="translate(36.384799, 32.202533) scale(-1, 1) rotate(-180.000000) translate(-36.384799, -32.202533) translate(34.384799, 29.535866)" id="path284">
                    <path d="M1.3333333,5.3333332 C1.3333333,5.3333332 0.27066666,3.8319999 2.82399993,1.23066664 C2.82399993,1.23066664 3.57599991,3.67599991 1.3333333,5.3333332"></path>
                </g>
            </g>
            <g id="g286" mask="url(#mask-2)" fill-rule="nonzero" fill="#344599">
                <g transform="translate(439.804655, 107.923197) scale(-1, 1) rotate(-180.000000) translate(-439.804655, -107.923197) translate(421.804656, 88.589865)" id="path288">
                    <path d="M14.6666663,37.3333324 C11.6999997,36.9373324 9.61599976,34.2106658 10.0119997,31.2439992 C10.4079997,28.2773326 13.1346663,26.1933327 16.1013329,26.5893327 C19.0666662,26.9853327 21.1506661,29.7119993 20.7546661,32.6786658 C20.3599995,35.6453324 17.6333329,37.7293324 14.6666663,37.3333324 M4.88533321,17.7466662 C2.24533328,17.3933329 0.389333324,14.9679996 0.742666648,12.3279997 C1.09466664,9.68666642 3.52133325,7.8319998 6.16133318,8.18533313 C8.80133311,8.53733312 10.6559997,10.9626664 10.3039997,13.6039997 C9.95066642,16.2439996 7.52533315,18.0986662 4.88533321,17.7466662 M25.5333327,10.6079997 C22.8933328,10.2546664 21.0386661,7.82933314 21.3906661,5.1893332 C21.7439995,2.54799994 24.1693327,0.693333316 26.8093327,1.04666664 C29.4493326,1.39866663 31.3053326,3.8239999 30.9519992,6.46533317 C30.5999992,9.10533311 28.1733326,10.9599997 25.5333327,10.6079997 M35.2293325,23.9133327 C34.8853325,26.4999993 32.5066659,28.318666 29.9173326,27.9733326 C27.330666,27.6279993 25.5119994,25.2493327 25.8573327,22.6613328 C26.202666,20.0733328 28.5813326,18.2546662 31.1693326,18.6013329 C33.7573325,18.9453329 35.5759991,21.3239995 35.2293325,23.9133327"></path>
                </g>
            </g>
            <g id="g290" mask="url(#mask-2)" fill-rule="nonzero" fill="#344599">
                <g transform="translate(36.494799, 114.628263) scale(-1, 1) rotate(-180.000000) translate(-36.494799, -114.628263) translate(21.161466, 99.294930)" id="path292">
                    <path d="M29.3333326,25.3333327 C28.0053326,27.8039993 24.9253327,28.7306659 22.4533328,27.4013326 C19.9826662,26.0733327 19.0559995,22.9933328 20.3853328,20.5226662 C21.7133328,18.0519995 24.7933327,17.1253329 27.2639993,18.4533329 C29.7359993,19.7813328 30.6613326,22.8613328 29.3333326,25.3333327 M8.91999978,27.434666 C7.73733314,29.6333326 4.99599988,30.4573326 2.79733326,29.2759993 C0.598666652,28.0933326 -0.225333328,25.3519994 0.955999976,23.1533328 C2.13866661,20.9533328 4.87999988,20.1293328 7.07866649,21.3119995 C9.2773331,22.4946661 10.1013331,25.234666 8.91999978,27.434666 M9.48799976,6.96399983 C8.30533313,9.16266644 5.56399986,9.98666642 3.36533325,8.80533311 C1.16666664,7.62266648 0.341333325,4.88133321 1.52399996,2.6826666 C2.70533327,0.483999988 5.44666653,-0.339999991 7.64533314,0.841333312 C9.84533309,2.02399995 10.6693331,4.76533321 9.48799976,6.96399983 M24.3626661,2.85999993 C26.518666,4.01866657 27.3279993,6.70533317 26.1679993,8.86133311 C25.0093327,11.0173331 22.3226661,11.825333 20.1666662,10.6666664 C18.0106662,9.50799976 17.2026662,6.81999983 18.3613329,4.66533322 C19.5213328,2.50933327 22.2079994,1.70133329 24.3626661,2.85999993"></path>
                </g>
            </g>
            <g id="g326" mask="url(#mask-2)" fill-rule="nonzero" fill="#DD4127">
                <g transform="translate(383.955723, 45.324266) scale(-1, 1) rotate(-180.000000) translate(-383.955723, -45.324266) translate(371.289057, 32.657599)" id="path328">
                    <path d="M23.9999994,17.3333329 C26.6599993,11.2546664 23.8879994,4.1719999 17.8093329,1.51199996 C11.7306664,-1.14666664 4.64799988,1.62399996 1.98933328,7.70266647 C-0.67066665,13.781333 2.10133328,20.8639995 8.17866646,23.5239994 C14.257333,26.1839993 21.3399995,23.4119994 23.9999994,17.3333329"></path>
                </g>
            </g>
            <g id="g330" mask="url(#mask-2)" fill-rule="nonzero" fill="#006C45">
                <g transform="translate(377.787724, 32.802799) scale(-1, 1) rotate(-180.000000) translate(-377.787724, -32.802799) translate(374.454390, 28.802799)" id="path332">
                    <polygon points="6.6666665 1.3333333 3.74933324 0.0573333319 0.963999976 6.42399984 3.88133324 7.69999981"></polygon>
                </g>
            </g>
            <g id="g334" mask="url(#mask-2)" fill-rule="nonzero" fill="#2CAE4A">
                <g transform="translate(383.516257, 30.410799) scale(-1, 1) rotate(-180.000000) translate(-383.516257, -30.410799) translate(380.182923, 25.744133)" id="path336">
                    <path d="M5.3333332,9.3333331 C5.3333332,9.3333331 5.93333319,1.61999996 0.349333325,0.858666645 C0.349333325,0.858666645 -0.901333311,5.57866653 5.3333332,9.3333331"></path>
                </g>
            </g>
            <g id="g358" mask="url(#mask-2)" fill-rule="nonzero" fill="#7EBD4F">
                <g transform="translate(304.032525, 99.886664) scale(-1, 1) rotate(-180.000000) translate(-304.032525, -99.886664) translate(290.699192, 83.886665)" id="path360">
                    <path d="M3.9999999,19.9999995 C4.29333323,20.3893328 4.62666655,20.7493328 4.99599988,21.0666661 C6.50933317,22.3733328 8.53733312,23.0306661 9.89466642,24.4999994 C11.2239997,25.9399994 11.7306664,27.970666 12.957333,29.4986659 C14.3066663,31.1813326 16.5413329,32.0413325 18.6799995,31.8826659 C19.6079995,31.8453325 20.5439995,31.6266659 21.4359995,31.2039992 C23.1413328,30.3973326 24.3759994,28.9973326 25.0119994,27.3679993 C25.4359994,26.3293327 25.6093327,25.1933327 25.4679994,24.0839994 C25.3893327,23.2933328 25.1773327,22.5026661 24.818666,21.7439995 C24.7293327,21.5559995 24.6319994,21.3759995 24.5293327,21.1999995 C24.0826661,20.1826662 23.6186661,19.1719995 23.4666661,18.0773329 C23.2866661,16.7799996 23.5573327,15.4813329 23.7519994,14.177333 C24.1599994,11.9026664 23.8879994,9.48399976 22.8239994,7.23599982 C20.1066662,1.49199996 13.2466663,-0.961333309 7.50133315,1.75599996 C1.75733329,4.47466655 -0.694666649,11.3346664 2.02266662,17.0799996 C2.5426666,18.1773329 3.21466659,19.1559995 3.9999999,19.9999995"></path>
                </g>
            </g>
            <g id="g362" mask="url(#mask-2)" fill-rule="nonzero" fill="#6C2933">
                <g transform="translate(313.628925, 82.845065) scale(-1, 1) rotate(-180.000000) translate(-313.628925, -82.845065) translate(310.295592, 78.178398)" id="path364">
                    <polygon points="0 1.3333333 2.23999994 0.114666664 6.01866652 7.05599982 3.77866657 8.27599979"></polygon>
                </g>
            </g>
            <g id="g366" mask="url(#mask-2)" fill-rule="nonzero" fill="#F0A589">
                <g transform="translate(178.360662, 42.767599) scale(-1, 1) rotate(-180.000000) translate(-178.360662, -42.767599) translate(164.360663, 28.100933)" id="path368">
                    <polygon points="0 29.3333326 27.9799993 19.7799995 7.73066647 0.586666652"></polygon>
                </g>
            </g>
            <g id="g370" mask="url(#mask-2)" fill-rule="nonzero" fill="#006E46">
                <g transform="translate(179.915996, 27.923199) scale(-1, 1) rotate(-180.000000) translate(-179.915996, -27.923199) translate(171.915996, 21.923200)" id="path372">
                    <polygon points="2.6666666 3.9999999 0.0173333329 10.6559997 5.89599985 5.54533319 10.2893331 10.8933331 9.94266642 5.01999987 15.4693329 6.63733317 10.9386664 1.12266664"></polygon>
                </g>
            </g>
            <g id="g374" mask="url(#mask-2)" fill-rule="nonzero" fill="#F594A4">
                <g transform="translate(178.360662, 42.767599) scale(-1, 1) rotate(-180.000000) translate(-178.360662, -42.767599) translate(164.360663, 28.100933)" id="path376">
                    <polygon points="0 29.3333326 27.9799993 19.7799995 7.73066647 0.586666652"></polygon>
                </g>
            </g>
            <g id="g378" mask="url(#mask-2)" fill-rule="nonzero" fill="#F0A589">
                <g transform="translate(174.882796, 32.549466) scale(-1, 1) rotate(-180.000000) translate(-174.882796, -32.549466) translate(172.882796, 31.216133)" id="path380">
                    <path d="M2.6666666,1.3333333 C2.93333326,1.3933333 3.14399992,1.55066663 3.31333325,1.74133329 L1.1533333,2.4786666 C1.1573333,2.41333327 1.14266664,2.34933327 1.1573333,2.28266661 C1.31199997,1.60399996 1.98799995,1.17866664 2.6666666,1.3333333"></path>
                </g>
            </g>
            <g id="g382" mask="url(#mask-2)" fill-rule="nonzero" fill="#EEC83C">
                <g transform="translate(169.507196, 32.157599) scale(-1, 1) rotate(-180.000000) translate(-169.507196, -32.157599) translate(167.507196, 30.157599)" id="path384">
                    <path d="M1.3333333,2.6666666 C0.65466665,2.51199994 0.229333328,1.83599995 0.38399999,1.1573333 C0.538666653,0.478666655 1.2133333,0.053333332 1.89199995,0.207999995 C2.57199994,0.362666658 2.99733326,1.03866664 2.8426666,1.71733329 C2.68799993,2.39599994 2.01199995,2.82133326 1.3333333,2.6666666"></path>
                </g>
            </g>
            <g id="g386" mask="url(#mask-2)" fill-rule="nonzero" fill="#EEC83C">
                <g transform="translate(176.865196, 36.244133) scale(-1, 1) rotate(-180.000000) translate(-176.865196, -36.244133) translate(174.865196, 34.244133)" id="path388">
                    <path d="M2.6666666,2.6666666 C2.51199994,3.34533325 1.83599995,3.77066657 1.1573333,3.61599991 C0.478666655,3.46133325 0.053333332,2.78533326 0.207999995,2.10666661 C0.362666658,1.42799996 1.03866664,1.00266664 1.71733329,1.1573333 C2.39599994,1.31199997 2.81999993,1.98799995 2.6666666,2.6666666"></path>
                </g>
            </g>
            <g id="g390" mask="url(#mask-2)" fill-rule="nonzero" fill="#EEC83C">
                <g transform="translate(182.065062, 35.020133) scale(-1, 1) rotate(-180.000000) translate(-182.065062, -35.020133) translate(180.065062, 33.020133)" id="path392">
                    <path d="M2.6666666,1.3333333 C3.16799992,1.44666663 3.52799991,1.84666662 3.61999991,2.32133328 L1.2773333,3.12133326 C1.1493333,2.86933326 1.09066664,2.57999994 1.1573333,2.28266661 C1.31199997,1.60399996 1.98799995,1.17866664 2.6666666,1.3333333"></path>
                </g>
            </g>
            <g id="g394" mask="url(#mask-2)" fill-rule="nonzero" fill="#EEC83C">
                <g transform="translate(170.539729, 36.694666) scale(-1, 1) rotate(-180.000000) translate(-170.539729, -36.694666) translate(168.539729, 34.694666)" id="path396">
                    <path d="M1.3333333,2.6666666 C0.65466665,2.51199994 0.229333328,1.83599995 0.38399999,1.1573333 C0.538666653,0.478666655 1.2133333,0.053333332 1.89199995,0.207999995 C2.57199994,0.362666658 2.99733326,1.03866664 2.8426666,1.71733329 C2.68799993,2.39599994 2.01199995,2.82133326 1.3333333,2.6666666"></path>
                </g>
            </g>
            <g id="g398" mask="url(#mask-2)" fill-rule="nonzero" fill="#EEC83C">
                <g transform="translate(177.897729, 40.781199) scale(-1, 1) rotate(-180.000000) translate(-177.897729, -40.781199) translate(175.897729, 38.781199)" id="path400">
                    <path d="M2.6666666,2.6666666 C2.51199994,3.34533325 1.83599995,3.77066657 1.1573333,3.61599991 C0.478666655,3.46133325 0.053333332,2.78533326 0.207999995,2.10666661 C0.362666658,1.42799996 1.03733331,1.00266664 1.71733329,1.1573333 C2.39599994,1.31199997 2.82133326,1.98799995 2.6666666,2.6666666"></path>
                </g>
            </g>
            <g id="g402" mask="url(#mask-2)" fill-rule="nonzero" fill="#EEC83C">
                <g transform="translate(184.047462, 39.381466) scale(-1, 1) rotate(-180.000000) translate(-184.047462, -39.381466) translate(182.047462, 37.381466)" id="path404">
                    <path d="M2.6666666,2.6666666 C2.51199994,3.34533325 1.83599995,3.77066657 1.1573333,3.61599991 C0.478666655,3.46133325 0.053333332,2.78533326 0.207999995,2.10666661 C0.362666658,1.42799996 1.03866664,1.00266664 1.71733329,1.1573333 C2.39599994,1.31199997 2.82133326,1.98799995 2.6666666,2.6666666"></path>
                </g>
            </g>
            <g id="g406" mask="url(#mask-2)" fill-rule="nonzero" fill="#EEC83C">
                <g transform="translate(189.072262, 37.208399) scale(-1, 1) rotate(-180.000000) translate(-189.072262, -37.208399) translate(187.072262, 35.208399)" id="path408">
                    <path d="M1.3333333,1.3333333 C1.48666663,0.65466665 2.16399995,0.229333328 2.8426666,0.38399999 C3.52133325,0.538666653 3.94666657,1.2133333 3.79199991,1.89333329 C3.77466657,1.96533328 3.73199991,2.02266662 3.70399991,2.08799995 L1.94399995,2.6906666 C1.47599996,2.41999994 1.20666664,1.88666662 1.3333333,1.3333333"></path>
                </g>
            </g>
            <g id="g410" mask="url(#mask-2)" fill-rule="nonzero" fill="#EEC83C">
                <g transform="translate(171.572263, 41.231732) scale(-1, 1) rotate(-180.000000) translate(-171.572263, -41.231732) translate(169.572263, 39.231732)" id="path412">
                    <path d="M1.3333333,2.6666666 C0.65466665,2.51333327 0.229333328,1.83599995 0.38399999,1.1573333 C0.538666653,0.478666655 1.2133333,0.053333332 1.89333329,0.207999995 C2.57199994,0.362666658 2.99733326,1.03866664 2.8426666,1.71733329 C2.68799993,2.39599994 2.01199995,2.82133326 1.3333333,2.6666666"></path>
                </g>
            </g>
            <g id="g414" mask="url(#mask-2)" fill-rule="nonzero" fill="#EEC83C">
                <g transform="translate(178.754529, 44.369199) scale(-1, 1) rotate(-180.000000) translate(-178.754529, -44.369199) translate(176.754529, 42.369199)" id="path416">
                    <path d="M1.3333333,2.6666666 C0.65466665,2.51199994 0.229333328,1.83599995 0.38399999,1.1573333 C0.538666653,0.478666655 1.2133333,0.053333332 1.89333329,0.207999995 C2.57199994,0.362666658 2.99733326,1.03866664 2.8426666,1.71733329 C2.68799993,2.39599994 2.01199995,2.82133326 1.3333333,2.6666666"></path>
                </g>
            </g>
            <g id="g418" mask="url(#mask-2)" fill-rule="nonzero" fill="#EEC83C">
                <g transform="translate(184.904262, 42.969466) scale(-1, 1) rotate(-180.000000) translate(-184.904262, -42.969466) translate(182.904262, 40.969466)" id="path420">
                    <path d="M1.3333333,2.6666666 C0.65466665,2.51199994 0.229333328,1.83599995 0.38399999,1.1573333 C0.538666653,0.478666655 1.2133333,0.053333332 1.89333329,0.207999995 C1.92533329,0.215999995 1.94933328,0.237333327 1.97999995,0.247999994 L2.76933326,0.994666642 C2.85599993,1.21999997 2.89999993,1.46399996 2.8426666,1.71733329 C2.68799993,2.39599994 2.01199995,2.82133326 1.3333333,2.6666666"></path>
                </g>
            </g>
            <g id="g422" mask="url(#mask-2)" fill-rule="nonzero" fill="#EEC83C">
                <g transform="translate(172.604796, 45.768932) scale(-1, 1) rotate(-180.000000) translate(-172.604796, -45.768932) translate(170.604796, 43.768932)" id="path424">
                    <path d="M1.3333333,2.6666666 C0.65466665,2.51333327 0.229333328,1.83599995 0.38399999,1.1573333 C0.538666653,0.478666655 1.2133333,0.053333332 1.89333329,0.207999995 C2.57199994,0.362666658 2.99733326,1.03733331 2.8426666,1.71733329 C2.68799993,2.39599994 2.01199995,2.82133326 1.3333333,2.6666666"></path>
                </g>
            </g>
            <g id="g426" mask="url(#mask-2)" fill-rule="nonzero" fill="#EEC83C">
                <g transform="translate(179.787062, 48.906266) scale(-1, 1) rotate(-180.000000) translate(-179.787062, -48.906266) translate(177.787062, 46.906266)" id="path428">
                    <path d="M1.3333333,2.6666666 C0.65466665,2.51333327 0.229333328,1.83599995 0.38399999,1.1573333 C0.462666655,0.81199998 0.677333316,0.535999987 0.958666643,0.363999991 L2.70533327,2.02133328 C2.44399994,2.50933327 1.89999995,2.79599993 1.3333333,2.6666666"></path>
                </g>
            </g>
            <g id="g430" mask="url(#mask-2)" fill-rule="nonzero" fill="#EEC83C">
                <g transform="translate(173.637329, 50.305999) scale(-1, 1) rotate(-180.000000) translate(-173.637329, -50.305999) translate(171.637329, 48.305999)" id="path432">
                    <path d="M1.3333333,2.6666666 C0.65466665,2.51333327 0.229333328,1.83599995 0.38399999,1.1573333 C0.538666653,0.478666655 1.2133333,0.053333332 1.89333329,0.207999995 C2.57199994,0.362666658 2.99733326,1.03866664 2.8426666,1.71733329 C2.68799993,2.39599994 2.01199995,2.82133326 1.3333333,2.6666666"></path>
                </g>
            </g>
            <g id="g434" mask="url(#mask-2)" fill-rule="nonzero" fill="#F0A589">
                <g transform="translate(173.720662, 55.018265) scale(-1, 1) rotate(-180.000000) translate(-173.720662, -55.018265) translate(171.720662, 53.018265)" id="path436">
                    <path d="M1.3333333,1.3333333 C1.34799997,1.26799997 1.3893333,1.2173333 1.4133333,1.1573333 L3.08133326,2.7386666 C2.83733326,2.8506666 2.56533327,2.90666659 2.28266661,2.8426666 C1.60399996,2.68799993 1.17866664,2.01199995 1.3333333,1.3333333"></path>
                </g>
            </g>
            <g id="g510" mask="url(#mask-2)" fill-rule="nonzero" fill="#7FBB55">
                <g transform="translate(495.105454, 30.463599) scale(-1, 1) rotate(-180.000000) translate(-495.105454, -30.463599) translate(485.772121, 26.463599)" id="path512">
                    <path d="M10.6666664,0 C8.02533313,3.05466659 4.33066656,5.17999987 0.362666658,5.92666652 C3.67999991,6.94266649 7.05599982,7.66533314 10.4079997,6.76799983 C13.7599997,5.87066652 16.8253329,3.40666658 17.7573329,0.0653333317"></path>
                </g>
            </g>
            <g id="g514" mask="url(#mask-2)" fill-rule="nonzero" fill="#23AD4D">
                <g transform="translate(493.626254, 39.567732) scale(-1, 1) rotate(-180.000000) translate(-493.626254, -39.567732) translate(481.626254, 33.567733)" id="path516">
                    <path d="M23.9999994,10.6666664 L19.2173329,0.80399998 C19.2173329,0.80399998 8.83733311,8.22266646 0.973333309,6.51999984 C0.973333309,6.51999984 9.90799975,13.545333 23.9999994,10.6666664"></path>
                </g>
            </g>
            <g id="g518" mask="url(#mask-2)" fill-rule="nonzero" fill="#23AD4D">
                <g transform="translate(505.129587, 26.764933) scale(-1, 1) rotate(-180.000000) translate(-505.129587, -26.764933) translate(501.129587, 16.098266)" id="path520">
                    <path d="M1.3333333,3.9999999 C-1.06933331,9.59199976 0.281333326,16.5893329 4.59333322,20.8853328 C3.61733324,17.6453329 4.54933322,14.1359996 5.89466652,11.0319997 C6.40933317,9.84533309 6.99066649,8.66666645 7.19999982,7.38933315 C7.70666647,4.32133323 5.69199986,1.03466664 2.72799993,0.0946666643"></path>
                </g>
            </g>
            <g id="g522" mask="url(#mask-2)" fill-rule="nonzero" fill="#EFC84F">
                <g transform="translate(509.246787, 53.975199) scale(-1, 1) rotate(-180.000000) translate(-509.246787, -53.975199) translate(495.913454, 35.308533)" id="path524">
                    <path d="M9.3333331,35.9999991 C4.89599988,34.4546658 1.77733329,30.1319992 0.887999978,25.518666 C-0.0013333333,20.9053328 1.09599997,16.0826663 3.11866659,11.841333 C5.1413332,7.60133314 8.04666647,3.8519999 10.9679997,0.171999996 C16.1093329,0.997333308 21.1906661,2.77733326 25.3333327,5.93199985 C26.7519993,14.2639996 24.8093327,23.0906661 20.2519995,30.2079992 C19.1386662,31.9479992 17.8319996,33.6199992 16.1026663,34.7506658 C14.3719996,35.8826658 11.2839997,36.6799991 9.3333331,35.9999991"></path>
                </g>
            </g>
            <g id="g526" mask="url(#mask-2)" fill-rule="nonzero" fill="#F05B35">
                <g transform="translate(505.668654, 54.828799) scale(-1, 1) rotate(-180.000000) translate(-505.668654, -54.828799) translate(501.668654, 50.828799)" id="path528">
                    <polygon points="2.6666666 7.9999998 0.443999989 3.28533325 5.71466652 0.727999982 7.60399981 6.28933318"></polygon>
                </g>
            </g>
            <g id="g530" mask="url(#mask-2)" fill-rule="nonzero" fill="#F05B35">
                <g transform="translate(510.387987, 64.738265) scale(-1, 1) rotate(-180.000000) translate(-510.387987, -64.738265) translate(506.387987, 60.071599)" id="path532">
                    <polygon points="0 2.6666666 2.18933328 8.1639998 7.33333315 6.35733317 5.46666653 0.222666661"></polygon>
                </g>
            </g>
            <g id="g534" mask="url(#mask-2)" fill-rule="nonzero" fill="#F05B35">
                <g transform="translate(513.236920, 57.029332) scale(-1, 1) rotate(-180.000000) translate(-513.236920, -57.029332) translate(508.570254, 53.029332)" id="path536">
                    <polygon points="2.6666666 7.9999998 0.954666643 3.30266658 6.38933317 0.602666652 8.29199979 5.71599986"></polygon>
                </g>
            </g>
            <g id="g538" mask="url(#mask-2)" fill-rule="nonzero" fill="#F05B35">
                <g transform="translate(508.056654, 46.653599) scale(-1, 1) rotate(-180.000000) translate(-508.056654, -46.653599) translate(504.056654, 42.653599)" id="path540">
                    <polygon points="2.6666666 7.9999998 0.729333315 2.66399993 5.75199986 0.830666646 7.8639998 5.99333318"></polygon>
                </g>
            </g>
            <g id="g542" mask="url(#mask-2)" fill-rule="nonzero" fill="#F05B35">
                <g transform="translate(499.014254, 51.127599) scale(-1, 1) rotate(-180.000000) translate(-499.014254, -51.127599) translate(496.347587, 46.460932)" id="path544">
                    <path d="M5.3333332,6.6666665 L0.433333323,8.54666645 C0.0506666654,6.47599984 0.0653333317,4.36666656 0.382666657,2.28666661 L3.52799991,1.20266664 L5.3333332,6.6666665 Z"></path>
                </g>
            </g>
            <g id="g546" mask="url(#mask-2)" fill-rule="nonzero" fill="#F05B35">
                <g transform="translate(498.533187, 57.813865) scale(-1, 1) rotate(-180.000000) translate(-498.533187, -57.813865) translate(497.199854, 55.813865)" id="path548">
                    <path d="M0,3.9999999 C0.239999994,3.06666659 0.538666653,2.14666661 0.881333311,1.2453333 L1.77866662,3.31199992 L0,3.9999999 Z"></path>
                </g>
            </g>
            <g id="g550" mask="url(#mask-2)" fill-rule="nonzero" fill="#F05B35">
                <g transform="translate(502.653587, 61.907599) scale(-1, 1) rotate(-180.000000) translate(-502.653587, -61.907599) translate(499.320254, 57.240932)" id="path552">
                    <path d="M6.6666665,6.6666665 L1.83999995,8.63466645 L0.207999995,4.79733321 C0.737333315,3.77599991 1.31199997,2.78133326 1.92533329,1.80799995 L4.47999989,0.530666653 L6.6666665,6.6666665 Z"></path>
                </g>
            </g>
            <g id="g554" mask="url(#mask-2)" fill-rule="nonzero" fill="#F05B35">
                <g transform="translate(504.350920, 68.733065) scale(-1, 1) rotate(-180.000000) translate(-504.350920, -68.733065) translate(503.017587, 67.399732)" id="path556">
                    <path d="M0,2.6666666 C0.347999991,2.17733328 0.701333316,1.69333329 1.06133331,1.2133333 L1.55999996,2.59199994 L0,2.6666666 Z"></path>
                </g>
            </g>
            <g id="g558" mask="url(#mask-2)" fill-rule="nonzero" fill="#F05B35">
                <g transform="translate(508.373720, 70.799465) scale(-1, 1) rotate(-180.000000) translate(-508.373720, -70.799465) translate(504.373720, 68.799465)" id="path560">
                    <path d="M1.3333333,3.9999999 L0.550666653,2.8306666 C1.19599997,1.99066662 1.85066662,1.1573333 2.50799994,0.330666658 C3.86266657,0.546666653 5.2133332,0.833333313 6.5426665,1.19066664 L6.82933316,2.13066661 L1.3333333,3.9999999 Z"></path>
                </g>
            </g>
            <g id="g562" mask="url(#mask-2)" fill-rule="nonzero" fill="#F05B35">
                <g transform="translate(513.394520, 69.946665) scale(-1, 1) rotate(-180.000000) translate(-513.394520, -69.946665) translate(512.061187, 68.613332)" id="path564">
                    <path d="M0,0 C0.494666654,0.150666663 0.986666642,0.307999992 1.4733333,0.481333321 L0.257333327,1.53199996 L0,0 Z"></path>
                </g>
            </g>
            <g id="g566" mask="url(#mask-2)" fill-rule="nonzero" fill="#F05B35">
                <g transform="translate(518.154253, 67.116532) scale(-1, 1) rotate(-180.000000) translate(-518.154253, -67.116532) translate(514.154253, 63.116532)" id="path568">
                    <path d="M0,1.3333333 L0.991999975,0.939999977 C3.16266659,1.84133329 5.22266654,2.98266659 7.09333316,4.40666656 C7.17466649,4.89333321 7.24533315,5.3813332 7.30533315,5.87199985 L2.28266661,7.27733315 L0,1.3333333 Z"></path>
                </g>
            </g>
            <g id="g570" mask="url(#mask-2)" fill-rule="nonzero" fill="#F05B35">
                <g transform="translate(500.502654, 43.046266) scale(-1, 1) rotate(-180.000000) translate(-500.502654, -43.046266) translate(496.502654, 39.046266)" id="path572">
                    <path d="M7.9999998,5.3333332 L3.9599999,7.20533315 C2.66533327,5.81199985 1.65066663,4.13333323 0.978666642,2.33066661 L6.06533318,0.28266666 L7.9999998,5.3333332 Z"></path>
                </g>
            </g>
            <g id="g574" mask="url(#mask-2)" fill-rule="nonzero" fill="#F05B35">
                <g transform="translate(511.338520, 39.882799) scale(-1, 1) rotate(-180.000000) translate(-511.338520, -39.882799) translate(507.338520, 36.549466)" id="path576">
                    <path d="M5.3333332,0 L6.8466665,3.42799991 C6.19999985,4.14533323 5.48666653,4.79599988 4.67733322,5.3253332 C3.8879999,5.84133319 2.81333326,6.28666651 1.69466662,6.55599984 L0.393333323,2.42933327 L5.3333332,0 Z"></path>
                </g>
            </g>
            <g id="g578" mask="url(#mask-2)" fill-rule="nonzero" fill="#F05B35">
                <g transform="translate(515.425720, 42.742799) scale(-1, 1) rotate(-180.000000) translate(-515.425720, -42.742799) translate(514.092387, 40.742799)" id="path580">
                    <path d="M2.6666666,1.3333333 C2.47199994,1.66133329 2.27866661,1.98799995 2.07333328,2.30799994 C1.82266662,2.6986666 1.56133329,3.08533326 1.2893333,3.46399991 L0.345333325,1.14399997 L2.6666666,1.3333333 Z"></path>
                </g>
            </g>
            <g id="g582" mask="url(#mask-2)" fill-rule="nonzero" fill="#F05B35">
                <g transform="translate(519.736920, 53.432932) scale(-1, 1) rotate(-180.000000) translate(-519.736920, -53.432932) translate(518.403587, 52.099599)" id="path584">
                    <path d="M2.6666666,0 C2.5186666,0.770666647 2.35066661,1.53599996 2.15066661,2.29599994 L0.94133331,0.509333321 L2.6666666,0 Z"></path>
                </g>
            </g>
            <g id="g586" mask="url(#mask-2)" fill-rule="nonzero" fill="#F05B35">
                <g transform="translate(516.379587, 49.202532) scale(-1, 1) rotate(-180.000000) translate(-516.379587, -49.202532) translate(512.379587, 45.202532)" id="path588">
                    <path d="M0,2.6666666 L5.4013332,0.509333321 L6.73333316,5.06266654 C6.54399984,5.53066653 6.34266651,5.99466652 6.13199985,6.45466651 L1.90133329,7.9399998 L0,2.6666666 Z"></path>
                </g>
            </g>
            <g id="g590" mask="url(#mask-2)" fill-rule="nonzero" fill="#F05B35">
                <g transform="translate(519.576120, 59.830665) scale(-1, 1) rotate(-180.000000) translate(-519.576120, -59.830665) translate(516.909453, 55.830665)" id="path592">
                    <path d="M0,2.6666666 L4.72799988,0.577333319 C4.84666655,2.53199994 4.79199988,4.49599989 4.56933322,6.44399984 L1.83733329,7.9079998 L0,2.6666666 Z"></path>
                </g>
            </g>
            <g id="g594" mask="url(#mask-2)" fill-rule="nonzero" fill="#7FBB55">
                <g transform="translate(509.604120, 30.347599) scale(-1, 1) rotate(-180.000000) translate(-509.604120, -30.347599) translate(500.937454, 19.014266)" id="path596">
                    <path d="M1.3333333,1.3333333 L8.75466645,0.966666643 C8.75466645,0.966666643 9.72799976,19.2906662 16.8239996,21.4466661 C16.8239996,21.4466661 0.454666655,16.7373329 1.3333333,1.3333333"></path>
                </g>
            </g>
        </g>
    </g>
</svg>